<svg width="30" height="30" viewBox="0 0 30 30" fill="none" xmlns="http://www.w3.org/2000/svg">
<rect x="5.69434" width="24.9638" height="24.9638" rx="3.74457" transform="rotate(13.1855 5.69434 0)" fill="url(#paint0_linear_232_1483)" fill-opacity="0.7"/>
<path d="M16.1711 14.3192L19.0485 14.9933L12.5558 21.1138L13.8286 15.6808L10.9513 15.0067L17.444 8.88626L16.1711 14.3192Z" fill="#F3F3F3"/>
<rect x="0.164062" y="5.49072" width="24.9638" height="24.9638" rx="3.74457" transform="rotate(-12.3207 0.164062 5.49072)" fill="url(#paint1_linear_232_1483)" fill-opacity="0.5"/>
<path d="M15.7858 13.9029L18.673 13.2723L15.4487 21.5921L14.258 16.1405L11.3708 16.7711L14.5952 8.45139L15.7858 13.9029Z" fill="#F3F3F3"/>
<rect x="2.49707" y="2.49646" width="24.9638" height="24.9638" rx="3.74457" fill="url(#paint2_linear_232_1483)"/>
<path d="M18.7588 10.2381L9.93945 19.0574V20.9783H11.2002V19.6873L20.0186 10.868V8.97833H18.7588V10.2381ZM20.0811 12.7576C20.0463 12.7577 20.0186 12.7864 20.0186 12.8211V19.0311C20.0185 19.0477 20.0118 19.0642 20 19.076L19.7031 19.3719L19.4062 19.6688C19.3945 19.6803 19.3788 19.6873 19.3623 19.6873H13.1523C13.1176 19.6873 13.0889 19.7151 13.0889 19.7498V20.8836C13.0889 20.9184 13.1176 20.9471 13.1523 20.9471H19.9922C20.0089 20.9471 20.0253 20.9403 20.0371 20.9285L21.2598 19.7059C21.2716 19.6941 21.2783 19.6776 21.2783 19.6609V12.8211C21.2783 12.7863 21.2496 12.7576 21.2148 12.7576H20.0811ZM9.96582 8.97833C9.94913 8.97834 9.9327 8.98508 9.9209 8.99689L8.69824 10.2195C8.68643 10.2314 8.67969 10.2478 8.67969 10.2645V17.1043C8.6797 17.1391 8.70838 17.1668 8.74316 17.1668H9.87695C9.91165 17.1667 9.93944 17.139 9.93945 17.1043V10.8943C9.93945 10.8776 9.94619 10.8612 9.95801 10.8494L10.2549 10.5535L10.5508 10.2567C10.5626 10.2449 10.579 10.2381 10.5957 10.2381H16.8057C16.8403 10.2381 16.8689 10.2102 16.8691 10.1756V9.04181C16.8691 9.00702 16.8405 8.97833 16.8057 8.97833H9.96582Z" fill="#FAF4F4"/>
<defs>
<linearGradient id="paint0_linear_232_1483" x1="5.69434" y1="0" x2="31.0763" y2="0.432629" gradientUnits="userSpaceOnUse">
<stop stop-color="#9E6EE5"/>
<stop offset="1" stop-color="#FA75F8"/>
</linearGradient>
<linearGradient id="paint1_linear_232_1483" x1="0.164063" y1="5.49072" x2="25.546" y2="5.92335" gradientUnits="userSpaceOnUse">
<stop stop-color="#9E6EE5"/>
<stop offset="1" stop-color="#FA75F8"/>
</linearGradient>
<linearGradient id="paint2_linear_232_1483" x1="2.49707" y1="2.49646" x2="27.879" y2="2.92909" gradientUnits="userSpaceOnUse">
<stop stop-color="#9E6EE5"/>
<stop offset="1" stop-color="#FA75F8"/>
</linearGradient>
</defs>
</svg>
