<svg width="30" height="30" viewBox="0 0 30 30" fill="none" xmlns="http://www.w3.org/2000/svg">
<path d="M19.9023 4.51953C19.738 4.92763 19.5681 5.29364 19.3613 5.70703C17.5216 9.59756 15.8623 13.552 14.6162 17.7129C13.8261 20.3526 13.1632 22.9771 13.0781 25.7441C13.0728 26.0462 13.0723 26.3908 13.1094 26.6875C13.1623 27.1115 13.2529 27.4878 13.4277 27.8535C13.8305 28.6646 14.4882 29.0997 15.2939 28.999C15.5483 28.9672 15.792 28.8503 16.0781 28.7285C16.4438 28.5537 16.7141 28.3045 17.0215 28.0078C17.3978 27.5732 17.7323 27.1439 18.0557 26.6299C18.5487 25.75 19.047 24.9121 19.54 24.0322C20.9927 21.1805 22.451 18.3708 23.8613 15.5244C25.4032 12.4678 27.3737 9.78245 30 7.60742V24.001C30 27.314 27.314 30 24.001 30H5.99902C2.68603 30 0 27.314 0 24.001V18.1758C0.0666987 18.2222 0.138152 18.2675 0.21875 18.3057C0.446675 18.4064 0.712355 18.4595 0.966797 18.4277C1.22112 18.3959 1.4647 18.2789 1.74023 18.0723C2.09541 17.8126 2.30761 17.4413 2.56738 17.1074C3.79186 15.5334 4.83633 13.8959 5.9707 12.29C6.81365 11.108 7.65164 9.88317 8.6377 8.8125C8.61648 8.98742 8.59488 9.16255 8.53125 9.34277C8.27144 10.3657 7.96994 11.394 7.79492 12.4062C7.72598 12.8885 7.60922 13.3338 7.66211 13.7578L7.68262 13.9277C7.85214 14.9402 8.56829 15.4971 9.37402 15.3965C9.62841 15.3647 9.87242 15.2482 10.1533 15.084C10.4342 14.9197 10.6247 14.7232 10.8525 14.4795C11.3402 13.9018 11.8707 13.3187 12.3955 12.6934C13.9223 10.7799 15.4918 8.8611 17.2041 7.05371C18.0364 6.13145 18.8687 5.20895 19.8018 4.40332L19.9023 4.51953ZM24.001 0C27.0852 0 29.6238 2.32785 29.96 5.32227C29.7458 5.21833 29.5138 5.17128 29.29 5.19922C29.1205 5.22039 28.9987 5.27891 28.8398 5.38477C28.596 5.50136 28.3569 5.66033 28.166 5.85645C26.4167 7.36688 24.8637 9.06831 23.5967 10.9922C22.3615 12.8261 21.3961 14.7558 20.4365 16.7275C19.0157 19.489 17.685 22.2825 16.1211 24.9326C16.0098 25.0757 15.9565 25.3412 15.7021 25.373C15.6491 25.2935 15.6434 25.2508 15.6328 25.166C15.6223 25.0813 15.6541 24.991 15.6436 24.9062C15.7815 23.597 16.0149 22.3618 16.333 21.1162C17.5368 16.2715 19.3717 11.6496 21.4766 7.12305C22.134 5.83506 22.7437 4.50981 23.2686 3.19531C23.417 2.65995 23.5708 2.16653 23.502 1.61523L23.5342 1.52539C23.4124 0.550029 22.6482 -0.0436982 21.6729 0.078125L21.5889 0.0888672C21.2549 0.173645 20.9685 0.295672 20.6875 0.459961C20.1256 0.788546 19.6169 1.19681 19.1504 1.59961C17.1253 3.31685 15.3015 5.26713 13.6104 7.24414C12.7409 8.2141 11.9184 9.22076 11.0225 10.3232C11.0067 9.85164 11.1023 9.58123 11.1924 9.26855C11.6007 8.05474 12.0941 6.83044 12.4971 5.57422C12.6667 5.20848 12.7466 4.81064 12.8262 4.41309C12.8474 4.23826 12.8629 4.02109 12.8418 3.85156C12.7941 3.4699 12.6245 3.14608 12.2959 2.92871C11.9673 2.71139 11.6117 2.62658 11.2725 2.66895C11.103 2.69016 10.8965 2.75902 10.6953 2.87012C10.2501 3.09798 9.86312 3.44848 9.51855 3.79297C7.49876 5.89717 5.77042 8.26647 4.08984 10.6729C3.79302 11.0544 3.45895 11.4837 3.16211 11.8652C3.44321 10.3228 3.94622 8.83822 4.50293 7.43359C4.5984 7.16339 4.79471 7.00955 5.0332 6.85059C5.54739 6.48489 5.74869 6.02896 5.69043 5.5625C5.65329 5.26575 5.52635 4.93724 5.27734 4.66699C4.97523 4.31712 4.52465 4.15797 4.10059 4.21094C3.76142 4.25332 3.43826 4.42304 3.13086 4.71973C2.75446 5.15436 2.51552 5.65814 2.28223 6.2041C1.2486 8.61129 0.545367 11.1003 0 13.6367V5.99902C0 2.68603 2.68603 0 5.99902 0H24.001Z" fill="#0E6AC7"/>
</svg>
