<svg width="135" height="28" viewBox="0 0 135 28" fill="none" xmlns="http://www.w3.org/2000/svg">
<path d="M14 0C6.28036 0 0 6.28036 0 14C0 21.7194 6.28036 28 14 28C21.7194 28 28 21.7195 28 14C28 6.28036 21.7194 0 14 0ZM25.4354 19.1492C25.3502 19.159 25.2649 19.1829 25.1847 19.2251C25.1523 19.2422 24.1557 19.7507 22.4767 20.3043C22.9357 18.3579 23.1367 16.4857 23.1688 14.7272H26.5228C26.4325 16.2955 26.0519 17.7862 25.4354 19.1492ZM19.1069 25.4545C17.7571 26.0588 16.2827 26.4324 14.7329 26.5227V23.2023C16.8231 23.1308 18.7148 22.8309 20.3226 22.4535C20.005 23.3686 19.6293 24.2926 19.1733 25.2209C19.1364 25.2969 19.1166 25.3758 19.1069 25.4545ZM8.78044 25.2038C8.76376 25.1712 8.25893 24.1822 7.70763 22.5148C9.65057 22.9744 11.5223 23.1807 13.2783 23.2138V26.5234C11.7088 26.4339 10.2172 26.0534 8.85312 25.4368C8.84151 25.3572 8.8197 25.2786 8.78044 25.2038ZM2.56478 19.1499C1.94832 17.7869 1.56725 16.2955 1.47743 14.7272H4.80325C4.87341 16.8382 5.17738 18.7439 5.55897 20.3626C4.64614 20.0455 3.72513 19.6708 2.79853 19.2163C2.72254 19.1789 2.64401 19.1591 2.56478 19.1499ZM2.5407 8.90322C2.63435 8.89563 2.72767 8.86915 2.81612 8.82294C2.84811 8.80568 3.82805 8.30611 5.48064 7.7578C5.02877 9.68107 4.82876 11.5323 4.79462 13.2724H1.47711C1.56621 11.7247 1.93859 10.252 2.5407 8.90322ZM8.85922 2.56069C10.2214 1.94618 11.7113 1.56621 13.2783 1.47705V4.84621C11.1624 4.91773 9.25269 5.22404 7.63281 5.60726C7.9521 4.68469 8.32992 3.75355 8.78939 2.81748C8.83028 2.73455 8.85163 2.64732 8.85922 2.56069ZM19.1826 2.83488C19.1993 2.86719 19.7038 3.85602 20.2549 5.52257C18.3287 5.0705 16.4752 4.87094 14.7329 4.83732V1.47776C16.2805 1.56758 17.7528 1.94028 19.1015 2.5433C19.1081 2.6422 19.1336 2.74149 19.1826 2.83488ZM14.7329 6.32722C16.6216 6.36006 18.6463 6.60141 20.7407 7.16068C21.185 8.84001 21.5728 10.9251 21.6634 13.2727H14.7329V6.32722ZM13.2783 6.34111V13.2727H6.28516C6.31891 11.3854 6.56104 9.36256 7.12071 7.26984C8.80958 6.82173 10.9109 6.43053 13.2783 6.34111ZM6.29847 14.7272H13.2783V21.7202C11.3748 21.6882 9.33387 21.4453 7.22175 20.8774C6.77526 19.1889 6.38621 17.0906 6.29847 14.7272ZM14.7329 21.706V14.7272H21.6782C21.647 16.6321 21.404 18.6748 20.837 20.7891C19.1578 21.2322 17.0761 21.6172 14.7329 21.706ZM23.1591 13.2727C23.0867 11.1752 22.7827 9.28144 22.4034 7.672C23.3288 7.99194 24.2635 8.37087 25.2032 8.83203C25.2856 8.87233 25.3714 8.89135 25.4577 8.89933C26.0611 10.2495 26.434 11.7234 26.5235 13.2727H23.1591ZM24.2848 6.82867C23.5015 6.50393 22.7246 6.22585 21.9561 5.98904C21.684 5.08153 21.4068 4.31679 21.1644 3.70994C22.3789 4.5582 23.436 5.61485 24.2848 6.82867ZM6.77968 3.75018C6.45909 4.52575 6.18328 5.29491 5.94868 6.05595C5.06148 6.32261 4.31088 6.59407 3.71247 6.83276C4.54827 5.63633 5.5874 4.59234 6.77968 3.75018ZM3.76952 21.2478C4.52219 21.5579 5.26915 21.8252 6.00806 22.0539C6.26544 22.9142 6.52879 23.6471 6.76189 24.2372C5.60414 23.4162 4.59162 22.4048 3.76952 21.2478ZM21.1898 24.2713C21.5043 23.5092 21.7755 22.7535 22.0071 22.0057C22.8871 21.7425 23.639 21.473 24.2391 21.2358C23.4042 22.4142 22.3722 23.4417 21.1898 24.2713Z" fill="#007AFF"/>
<path d="M42.3929 21.7184C41.5315 21.7184 40.7489 21.5546 40.0451 21.227C39.3414 20.8994 38.7469 20.4626 38.2615 19.9166C37.7762 19.3585 37.4304 18.7457 37.2241 18.0784L38.5345 17.587C38.85 18.5091 39.3414 19.2129 40.0087 19.6982C40.6761 20.1714 41.4708 20.408 42.3929 20.408C42.9753 20.408 43.4849 20.317 43.9217 20.135C44.3707 19.9409 44.7165 19.6739 44.9591 19.3342C45.2018 18.9945 45.3231 18.6001 45.3231 18.1512C45.3231 17.4839 45.1411 16.9682 44.7771 16.6042C44.4131 16.2402 43.8914 15.9611 43.2119 15.767L40.7731 15.039C39.8146 14.7599 39.0745 14.2928 38.5527 13.6376C38.0431 12.9824 37.7883 12.2362 37.7883 11.399C37.7883 10.6831 37.9643 10.0522 38.3161 9.5062C38.668 8.94807 39.1473 8.51127 39.7539 8.1958C40.3727 7.88033 41.0704 7.7226 41.8469 7.7226C42.6599 7.7226 43.3879 7.87427 44.0309 8.1776C44.6861 8.4688 45.2382 8.85707 45.6871 9.3424C46.1361 9.82773 46.4576 10.3677 46.6517 10.9622L45.3777 11.4718C45.0865 10.671 44.6315 10.0643 44.0127 9.6518C43.4061 9.23927 42.6902 9.033 41.8651 9.033C41.3434 9.033 40.8823 9.124 40.4819 9.306C40.0937 9.488 39.7903 9.74887 39.5719 10.0886C39.3535 10.4283 39.2443 10.8287 39.2443 11.2898C39.2443 11.8479 39.4203 12.3515 39.7721 12.8004C40.124 13.2372 40.6639 13.5648 41.3919 13.7832L43.5395 14.4202C44.6073 14.7357 45.4141 15.1907 45.9601 15.7852C46.5061 16.3797 46.7791 17.1259 46.7791 18.0238C46.7791 18.7518 46.5911 19.3949 46.2149 19.953C45.8509 20.499 45.3353 20.9297 44.6679 21.2452C44.0127 21.5607 43.2544 21.7184 42.3929 21.7184ZM48.1894 21.5L53.1398 7.941H54.705L59.6554 21.5H58.1266L56.9618 18.1876H50.9012L49.7182 21.5H48.1894ZM51.3744 16.8226H56.4522L53.704 9.033H54.1408L51.3744 16.8226ZM61.4634 21.5V7.941H62.9194V20.135H68.9254V21.5H61.4634ZM71.1322 21.5V7.941H79.8682V9.306H72.5882V14.0198H79.5042V15.3848H72.5882V20.135H79.8682V21.5H71.1322ZM86.8443 21.7184C85.9828 21.7184 85.2002 21.5546 84.4965 21.227C83.7928 20.8994 83.1982 20.4626 82.7129 19.9166C82.2276 19.3585 81.8818 18.7457 81.6755 18.0784L82.9859 17.587C83.3014 18.5091 83.7928 19.2129 84.4601 19.6982C85.1274 20.1714 85.9222 20.408 86.8443 20.408C87.4267 20.408 87.9363 20.317 88.3731 20.135C88.822 19.9409 89.1678 19.6739 89.4105 19.3342C89.6532 18.9945 89.7745 18.6001 89.7745 18.1512C89.7745 17.4839 89.5925 16.9682 89.2285 16.6042C88.8645 16.2402 88.3428 15.9611 87.6633 15.767L85.2245 15.039C84.266 14.7599 83.5258 14.2928 83.0041 13.6376C82.4945 12.9824 82.2397 12.2362 82.2397 11.399C82.2397 10.6831 82.4156 10.0522 82.7675 9.5062C83.1194 8.94807 83.5986 8.51127 84.2053 8.1958C84.8241 7.88033 85.5218 7.7226 86.2983 7.7226C87.1112 7.7226 87.8392 7.87427 88.4823 8.1776C89.1375 8.4688 89.6896 8.85707 90.1385 9.3424C90.5874 9.82773 90.909 10.3677 91.1031 10.9622L89.8291 11.4718C89.5379 10.671 89.0829 10.0643 88.4641 9.6518C87.8574 9.23927 87.1416 9.033 86.3165 9.033C85.7948 9.033 85.3337 9.124 84.9333 9.306C84.545 9.488 84.2417 9.74887 84.0233 10.0886C83.8049 10.4283 83.6957 10.8287 83.6957 11.2898C83.6957 11.8479 83.8716 12.3515 84.2235 12.8004C84.5754 13.2372 85.1153 13.5648 85.8433 13.7832L87.9909 14.4202C89.0586 14.7357 89.8655 15.1907 90.4115 15.7852C90.9575 16.3797 91.2305 17.1259 91.2305 18.0238C91.2305 18.7518 91.0424 19.3949 90.6663 19.953C90.3023 20.499 89.7866 20.9297 89.1193 21.2452C88.4641 21.5607 87.7058 21.7184 86.8443 21.7184ZM94.3151 21.5V19.498H95.7711V21.5H94.3151ZM98.8493 21.5V7.941H103.272C104.74 7.941 106.014 8.2322 107.094 8.8146C108.174 9.397 109.011 10.1978 109.606 11.217C110.2 12.2362 110.497 13.401 110.497 14.7114C110.497 16.0218 110.2 17.1927 109.606 18.224C109.011 19.2432 108.174 20.044 107.094 20.6264C106.014 21.2088 104.74 21.5 103.272 21.5H98.8493ZM101.67 19.043H103.345C104.23 19.043 104.995 18.8671 105.638 18.5152C106.281 18.1512 106.778 17.6477 107.13 17.0046C107.494 16.3494 107.676 15.585 107.676 14.7114C107.676 13.8257 107.494 13.0613 107.13 12.4182C106.778 11.7751 106.281 11.2777 105.638 10.9258C104.995 10.5739 104.23 10.398 103.345 10.398H101.67V19.043ZM112.304 21.5V7.941H121.422V10.398H115.125V13.4738H121.058V15.9308H115.125V19.043H121.422V21.5H112.304ZM126.661 21.5L122.02 7.941H125.114L128.609 18.8246H127.99L131.484 7.941H134.578L129.937 21.5H126.661Z" fill="#050506"/>
</svg>
