<svg width="108" height="112" viewBox="0 0 108 112" fill="none" xmlns="http://www.w3.org/2000/svg">
<path d="M45.231 95.1007V103.267C45.231 105.497 46.4732 107.328 48.0016 107.328H59.0892C60.6284 107.328 61.8651 105.492 61.8651 103.267V95.1007M93.1459 55.5029H103.051M83.1762 23.0339L90.2025 16.0076M53.5481 4.05051V12.0597M17.0394 16.0022L24.0171 23.0339M13.9502 55.5029H4.05078M81.9125 58.6677C80.3787 71.4403 72.013 76.5439 68.4 80.2488C64.7815 83.9645 65.4296 84.7044 65.6726 90.1537C65.7132 90.8279 65.6152 91.5032 65.3849 92.1381C65.1545 92.7731 64.7965 93.3541 64.333 93.8454C63.8695 94.3367 63.3104 94.7279 62.69 94.9949C62.0695 95.2618 61.401 95.3989 60.7256 95.3977H46.3706C45.6956 95.3966 45.028 95.2579 44.4084 94.9902C43.7888 94.7224 43.2302 94.3313 42.7668 93.8406C42.3033 93.3498 41.9447 92.7698 41.7129 92.136C41.481 91.5021 41.3807 90.8276 41.4181 90.1537C41.4181 84.807 41.915 83.5648 38.6962 80.2488C34.5917 76.1443 24.9352 70.3493 24.9352 54.4119C24.9106 50.4532 25.7063 46.5323 27.2722 42.8964C28.8381 39.2605 31.1402 35.9884 34.0335 33.2863C36.9268 30.5843 40.3484 28.5109 44.0828 27.1969C47.8171 25.8829 51.7832 25.3567 55.731 25.6516C59.6788 25.9465 63.5227 27.056 67.0204 28.9101C70.5181 30.7643 73.5937 33.323 76.0535 36.4249C78.5133 39.5267 80.3038 43.1045 81.3122 46.9327C82.3205 50.7609 82.525 54.7565 81.9125 58.6677Z" stroke="#AFAFAF" stroke-width="8.10103" stroke-linecap="round" stroke-linejoin="round"/>
</svg>
